<?xml version="1.0" encoding="utf-8"?>
<!-- Generator: Adobe Illustrator 22.1.0, SVG Export Plug-In . SVG Version: 6.00 Build 0)  -->
<svg version="1.1" id="Layer_1" xmlns="http://www.w3.org/2000/svg" xmlns:xlink="http://www.w3.org/1999/xlink" x="0px" y="0px"
	 viewBox="0 0 1200 600" style="enable-background:new 0 0 1200 600;" xml:space="preserve">
<style type="text/css">
	.st0{fill:none;}
	.st1{fill:none;stroke:#5147FF;stroke-width:7;stroke-dasharray:1000;stroke-dashoffset:1000;}
</style>
<title>main-graphic</title>
<path class="st0" d="M292.5,586.1v-28.5H75.7v28.5c0,5,1.5,9.8,4.4,13.9h208C291,595.9,292.5,591.1,292.5,586.1z"/>
<path class="st0" d="M268.4,228.5H99.8c-13.3,0-24.1,10.8-24.2,24.1v39.7h216.9v-39.7C292.5,239.3,281.7,228.5,268.4,228.5z
	 M184.5,275c-8.6,0-15.5-6.9-15.5-15.5c0-8.6,6.9-15.5,15.5-15.5s15.5,6.9,15.5,15.5l0,0C200,268.1,193.1,275,184.5,275z"/>
<path class="st0" d="M184.5,252.2c-4.1,0-7.3,3.3-7.3,7.3c0,4.1,3.3,7.3,7.3,7.3c4.1,0,7.3-3.3,7.3-7.3l0,0
	C191.8,255.4,188.6,252.2,184.5,252.2z"/>
<polygon class="st0" points="280.8,300.5 276.5,300.5 229.4,300.5 221.3,300.5 172.2,300.5 163.6,300.5 75.7,300.5 75.7,549.5 
	292.5,549.5 292.5,497 292.5,488.2 292.5,450.4 292.5,441.1 292.5,392.6 292.5,385.8 292.5,378.2 292.5,300.5 285.1,300.5 "/>
<path class="st0" d="M300.6,517.8v68.3c0,4.8-1.1,9.6-3.1,13.9"/>
<path class="st1" d="M300.6,494.4V252.6c0-17.8-14.5-32.2-32.2-32.2h-38.9V87.1c13.5-7.4,25.8-16.7,36.7-27.6
	c16.9-16.8,29.8-37.1,38-59.5h-8.6c-7.8,20.2-19.7,38.5-35.1,53.8c-9.3,9.3-19.7,17.3-30.9,24V0h-8.1v82.2
	c-21.8,11.1-45.9,16.9-70.4,16.9c-41.1,0.1-80.5-16.2-109.4-45.3C26.2,38.5,14.2,20.2,6.4,0H0v5.8c8.2,20.1,20.4,38.4,35.8,53.8
	c29.5,29.6,69.3,46.7,111.1,47.6v98.1c0,5.1,0.1,10.1,0.4,15.2H99.8c-17.8,0-32.2,14.4-32.2,32.2v333.5c0,4.8,1.1,9.6,3.2,13.9h9.3
	c-2.9-4.1-4.4-8.9-4.4-13.9v-28.5h216.9v28.5c0,5-1.5,9.8-4.4,13.9h9.4c2.1-4.3,3.2-9.1,3.1-13.9V494.4z M155,107.1
	c23-0.5,45.6-5.9,66.4-15.9v129.1h-66c-0.3-5-0.4-10.1-0.4-15.2L155,107.1z M292.5,378.2v171.2H75.7v-249h216.9V378.2z M292.5,270.2
	v22.2H75.7v-39.8c0-13.3,10.8-24.1,24.2-24.1h168.5c13.3,0,24.2,10.8,24.2,24.1V270.2z"/>
<path class="st1" d="M184.5,244c-8.6,0-15.5,6.9-15.5,15.5c0,8.6,6.9,15.5,15.5,15.5s15.5-6.9,15.5-15.5l0,0
	C200,250.9,193.1,244,184.5,244z M184.5,266.8c-4.1,0-7.3-3.3-7.3-7.3c0-4.1,3.3-7.3,7.3-7.3c4.1,0,7.3,3.3,7.3,7.3l0,0
	C191.8,263.6,188.6,266.8,184.5,266.8z"/>
</svg>
