<svg id="Layer_1" data-name="Layer 1" xmlns="http://www.w3.org/2000/svg" viewBox="0 0 1200 600">
  <defs>
    <style>
      path {
        stroke-dasharray: 1000;
        stroke-dashoffset: 1000;
        animation: dash 15s linear 5s infinite alternate;
      }
      @keyframes dash {
        to {
          stroke-dashoffset: 0;
        }
      }
    </style>
  </defs>
  <title>main-graphic</title>
  <path class="cls-1" d="M578.33,107.89a8.45,8.45,0,0,0,8.44-8.45V88l-4.49-5.7-.78-1L580,79.43l.22-.22A14.1,14.1,0,0,1,578.83,73V12.83L568.55,2.45V73a14.26,14.26,0,0,1-14.24,14.24H481l16.28,20.66Z" />
  <path class="cls-1" d="M375.9,81.56a93.08,93.08,0,0,0,93,93H788.37a77,77,0,0,1,109.42,0h85a99.84,99.84,0,0,1,26.47-63.82c-.47-5.84-.84-12.12-.87-17.63,0-1.77-.26-4.14-.55-6.88-1.46-13.54-4-37.17,14-66.2l-3,2.07c-35.92,24.23-64.64,32.5-85.37,24.59l-4.51-1.72,2.48-4.13s3.74-6.56,9.8-28A63.57,63.57,0,0,1,946.85,0H808.57l17.36,17.53V99.44A16.55,16.55,0,0,1,809.4,116h-85l-14-17.74v1.2A16.56,16.56,0,0,1,693.86,116h-85l-14-17.74v1.2A16.55,16.55,0,0,1,578.33,116h-85L466.75,82.27l-.78-1-1.47-1.85.23-.22A14.11,14.11,0,0,1,463.29,73V0H375.9V81.56Z" />
  <path class="cls-1" d="M586.92,9.5V73a6.2,6.2,0,0,0,6.14,6.15h76.79A6.15,6.15,0,0,0,676,73V0H586.92ZM624,38V23h8V47h-8Z" />
  <path class="cls-1" d="M1015.84,85.33c.32,3,.6,5.52.61,7.7,0,3.21.15,6.72.37,10.27a100,100,0,0,1,40.87-21.72,198.61,198.61,0,0,0,15.51-30.92,245.36,245.36,0,0,0,9.58-29.12,102.65,102.65,0,0,1,4.5-21.19l7.86,1.77A195.38,195.38,0,0,1,1090.77,23c-2.76,31.36,15.09,48.91,28.79,62.3A100.22,100.22,0,0,1,1148,102.44a128.74,128.74,0,0,0,2.4-14.39,127.17,127.17,0,0,0-2.93-44.42A141.59,141.59,0,0,0,1128.12,0h-80c-14.42,14.62-24.21,29.64-29.18,44.82C1013.32,61.94,1014.84,76,1015.84,85.33Z" />
  <path class="cls-1" d="M693.86,107.89a8.46,8.46,0,0,0,8.45-8.45V88l-4.5-5.7-.78-1-1.46-1.85.22-.22A14.24,14.24,0,0,1,694.36,73V12.83L684.08,2.45V73a14.25,14.25,0,0,1-14.23,14.24H596.49l16.28,20.66Z" />
  <path class="cls-1" d="M1200,0h-62.31a147.4,147.4,0,0,1,17.69,42,135.43,135.43,0,0,1,3,47.36,139,139,0,0,1-3.61,19.5,100.19,100.19,0,1,1-172,73.79h-78a77,77,0,0,1,10,74.58" />
  <path class="cls-1" d="M702.45,9.5V73A6.09,6.09,0,0,0,704,77a6.16,6.16,0,0,0,3.74,2,6.4,6.4,0,0,0,.88.07h76.78A6.16,6.16,0,0,0,791.53,73V0H702.45ZM739,44V23h8V47h-8Z" />
  <path class="cls-1" d="M940.46,40.39c22.25,5.31,52.06-10.38,73.77-25C1021.8,10.26,1028.87,5,1035.12,0H956.21c-3.59,5.87-6.17,11.12-7.27,15A224.46,224.46,0,0,1,940.46,40.39Z" />
  <path class="cls-1" d="M471.38,72.91V73a6.16,6.16,0,0,0,5.27,6.08,6.4,6.4,0,0,0,.88.07h76.78A6.16,6.16,0,0,0,560.46,73V0H471.38Zm37.62-35V23h8V47h-8Z" />
  <path class="cls-1" d="M809.4,107.89a8.46,8.46,0,0,0,8.44-8.45V20.86L799.62,2.45V73a14.26,14.26,0,0,1-14.24,14.24H712l16.28,20.66Z" />
  <polygon class="cls-1" points="694.36 0 693.04 0 694.36 1.33 694.36 0" />
  <polygon class="cls-1" points="578.83 0 577.51 0 578.83 1.33 578.83 0" />
  <path class="cls-1" d="M1103.6,80.52a87.36,87.36,0,0,1-15-22.3,69.3,69.3,0,0,1-4.5-13.43c-1,2.82-2.11,5.73-3.29,8.69a215.33,215.33,0,0,1-12.39,25.94,100.75,100.75,0,0,1,35.21,1.1Z" />
  <path class="cls-1" d="M780.12,257.18H839V195.47h8.09v61.71H906a68.91,68.91,0,0,0-11.71-74.58,69.7,69.7,0,0,0-8.66-8.08,69,69,0,0,0-85.17,0,69.7,69.7,0,0,0-8.66,8.08,68.91,68.91,0,0,0-11.71,74.58Z" />
  <path class="cls-1" d="M409.54,424.24a100.17,100.17,0,0,1-108.93-22.43" />
  <path class="cls-1" d="M300.61,389.76a92.1,92.1,0,0,0,108.94,25.69c1.39-.63,2.75-1.28,4.09-2s2.8-1.47,4.17-2.26a93.36,93.36,0,0,0,17.59-13.17c1-.93,1.93-1.89,2.87-2.87s1.85-2,2.74-3A92.09,92.09,0,1,0,300.61,273M376,364h-8V297h8Z" />
  <path class="cls-1" d="M1011.82,178.56,995.31,150a92.13,92.13,0,0,0,0,57.19Z" />
  <path class="cls-1" d="M771.34,257.18a77,77,0,0,1,10-74.58H468.89a101.22,101.22,0,0,1-93-61.45V231.29a100.12,100.12,0,0,1,71.24,166.18" />
  <path class="cls-1" d="M441.55,403.33a100.62,100.62,0,0,1-24,17.22" />
  <path class="cls-1" d="M1101.76,268.73a91.36,91.36,0,0,0,25.53-9.47h-20.06Z" />
  <path class="cls-1" d="M1065.51,255.1l8.76,15.17c2.84.26,5.72.41,8.64.41s5.79-.15,8.63-.41l8.77-15.17L1082.91,225Z" />
  <path class="cls-1" d="M1170.5,207.16a91.94,91.94,0,0,0,0-57.19L1154,178.56Z" />
  <path class="cls-1" d="M1107.38,182.6l-19.81,34.29,19.66,34h32.62a92.61,92.61,0,0,0,18.92-20.15l7.47-12.92c.16-.36.33-.71.5-1.07L1147,182.6Z" />
  <path class="cls-1" d="M1038.52,259.26a91.36,91.36,0,0,0,25.53,9.47l-5.47-9.47Z" />
  <polygon class="cls-1" points="1100.38 178.56 1082.91 148.31 1065.43 178.56 1082.91 208.81 1100.38 178.56" />
  <path class="cls-1" d="M1078.24,216.89l-19.81-34.29h-39.61l-19.74,34.19c.16.36.33.71.5,1.07l7.46,12.92A92.61,92.61,0,0,0,1026,250.93h32.62Z" />
  <path class="cls-1" d="M1107.38,97.86h19.91q-1.18-.66-2.4-1.29a91.78,91.78,0,0,0-9.78-4.31,89.9,89.9,0,0,0-13.18-3.83Z" />
  <path class="cls-1" d="M1051.37,97.86h7.06l5.45-9.43-1.08.23c-2,.44-3.92,1-5.85,1.51-2.23.66-4.42,1.39-6.57,2.21a91.13,91.13,0,0,0-11.86,5.48h12.85Z" />
  <path class="cls-1" d="M1100.38,101.9l-8.68-15q-4.35-.42-8.79-.42t-8.8.42l-8.68,15,17.48,30.25Z" />
  <path class="cls-1" d="M1107.38,105.94l-19.81,34.29,19.81,34.29H1147l19.75-34.19c-.17-.36-.34-.71-.5-1.07l-7.47-12.92a91.43,91.43,0,0,0-6.65-8.52c-1-1.17-2.08-2.3-3.15-3.41s-2.15-2.16-3.27-3.19c-2-1.85-4-3.61-6.17-5.28h-32.15Z" />
  <path class="cls-1" d="M1058.43,174.52l19.81-34.29-19.81-34.29h-32.15a91.84,91.84,0,0,0-8.68,7.7c-1.27,1.27-2.49,2.58-3.69,3.93s-2.46,2.86-3.62,4.34-2.21,2.92-3.25,4.43l-7.46,12.92c-.17.36-.34.71-.5,1.07l19.74,34.19Z" />
  <path stroke="#5147ff" stroke-width="7" class="cls-2" d="M1007,230.78l-7.46-12.92c-.17-.36-.34-.71-.5-1.07l19.74-34.19h39.61l19.81,34.29-19.66,34H1026A92.61,92.61,0,0,1,1007,230.78Zm58.39-52.22,17.48-30.25,17.47,30.25-17.47,30.25Zm-26.91,80.7h20.06l5.47,9.47A91.36,91.36,0,0,1,1038.52,259.26Zm53,11c-2.84.26-5.72.41-8.63.41s-5.8-.15-8.64-.41l-8.76-15.17,17.4-30.13,17.4,30.13Zm10.22-1.54,5.47-9.47h20.06A91.36,91.36,0,0,1,1101.76,268.73Zm64.48-50.87-7.47,12.92a92.61,92.61,0,0,1-18.92,20.15h-32.62l-19.66-34,19.81-34.29H1147l19.75,34.19C1166.57,217.15,1166.4,217.5,1166.24,217.86Zm8.82-39.3a91.75,91.75,0,0,1-4.56,28.6L1154,178.56,1170.5,150A91.64,91.64,0,0,1,1175.06,178.56Zm-38.82-72.62h3.29c2.14,1.67,4.19,3.43,6.17,5.28,1.12,1,2.2,2.1,3.27,3.19s2.12,2.24,3.15,3.41a91.43,91.43,0,0,1,6.65,8.52l7.47,12.92c.16.36.33.71.5,1.07L1147,174.52h-39.61l-19.81-34.29,19.81-34.29h28.86Zm-11.35-9.37q1.21.63,2.4,1.29h-19.91l-5.45-9.43a89.9,89.9,0,0,1,13.18,3.83A91.78,91.78,0,0,1,1124.89,96.57Zm-44.11-43.09c1.18-3,2.28-5.87,3.29-8.69a69.3,69.3,0,0,0,4.5,13.43,87.36,87.36,0,0,0,15,22.3,100.75,100.75,0,0,0-35.21-1.1A215.33,215.33,0,0,0,1080.78,53.48Zm-6.67,33.39q4.35-.42,8.8-.42t8.79.42l8.68,15-17.47,30.25-17.48-30.25Zm-23.73,5.51c2.15-.82,4.34-1.55,6.57-2.21,1.93-.56,3.88-1.07,5.85-1.51l1.08-.23-5.45,9.43h-19.91A91.13,91.13,0,0,1,1050.38,92.38Zm-50.8,46.88,7.46-12.92q1.56-2.27,3.25-4.43t3.62-4.34c1.2-1.35,2.42-2.66,3.69-3.93a91.84,91.84,0,0,1,8.68-7.7h32.15l19.81,34.29-19.81,34.29h-39.61l-19.74-34.19C999.24,140,999.41,139.62,999.58,139.26ZM995.31,150l16.51,28.59-16.51,28.6a92.13,92.13,0,0,1,0-57.19ZM847.12,257.18V195.47H839v61.71Zm-400,140.29A100.12,100.12,0,0,0,375.9,231.29V121.15a101.22,101.22,0,0,0,93,61.45H781.37a77,77,0,0,0-10,74.58h8.78a68.91,68.91,0,0,1,11.71-74.58,69.7,69.7,0,0,1,8.66-8.08,69,69,0,0,1,85.17,0,69.7,69.7,0,0,1,8.66,8.08A68.91,68.91,0,0,1,906,257.18h8.78a77,77,0,0,0-10-74.58h78a100.23,100.23,0,1,0,172-73.79,139,139,0,0,0,3.61-19.5,135.43,135.43,0,0,0-3-47.36A147.4,147.4,0,0,0,1137.69,0h-9.57a141.59,141.59,0,0,1,19.35,43.63,127.17,127.17,0,0,1,2.93,44.42,128.74,128.74,0,0,1-2.4,14.39,100.22,100.22,0,0,0-28.44-17.14c-13.7-13.39-31.55-30.94-28.79-62.3a195.38,195.38,0,0,0,4.37-20.88L1087.28.35a102.65,102.65,0,0,0-4.5,21.19,245.36,245.36,0,0,1-9.58,29.12,198.61,198.61,0,0,1-15.51,30.92,100,100,0,0,0-40.87,21.72c-.22-3.55-.36-7.06-.37-10.27,0-2.18-.29-4.74-.61-7.7-1-9.32-2.52-23.39,3.09-40.51,5-15.18,14.76-30.2,29.18-44.82h-13c-6.25,5-13.32,10.26-20.89,15.37-21.71,14.64-51.52,30.33-73.77,25A224.46,224.46,0,0,0,948.94,15c1.1-3.91,3.68-9.16,7.27-15h-9.36a63.57,63.57,0,0,0-5.69,12.83c-6.06,21.41-9.78,27.93-9.8,28l-2.48,4.13,4.51,1.72c20.73,7.91,49.45-.36,85.37-24.59l3-2.07c-18,29-15.45,52.66-14,66.2.29,2.74.55,5.11.55,6.88,0,5.51.4,11.79.87,17.63a99.84,99.84,0,0,0-26.47,63.82h-85a77,77,0,0,0-109.42,0H468.89a93.08,93.08,0,0,1-93-93V0h-8.09V231.29a100,100,0,0,0-67.2,29.7v12A92.09,92.09,0,1,1,441,392.2c-.89,1-1.8,2-2.74,3s-1.89,1.94-2.87,2.87a93.36,93.36,0,0,1-17.59,13.17q-2.06,1.18-4.17,2.26c-1.34.69-2.7,1.34-4.09,2a92.1,92.1,0,0,1-108.94-25.69v12.05a100.17,100.17,0,0,0,108.93,22.43,79.59,79.59,0,0,0,8-3.69,100.62,100.62,0,0,0,24-17.22Z" />
  <path stroke="#5147ff" stroke-width="7" class="cls-2" d="M464.73,79.21l-.23.22L466,81.28l.78,1L493.31,116h85a16.55,16.55,0,0,0,16.53-16.54v-1.2l14,17.74h85A16.56,16.56,0,0,0,710.4,99.44v-1.2l14,17.74h85a16.55,16.55,0,0,0,16.53-16.54V17.53L808.57,0h-17V73a6.16,6.16,0,0,1-6.15,6.15H708.6a6.4,6.4,0,0,1-.88-.07A6.16,6.16,0,0,1,704,77a6.09,6.09,0,0,1-1.53-4V0h-8.09V1.33L693,0H676V73a6.15,6.15,0,0,1-6.14,6.15H593.06A6.2,6.2,0,0,1,586.92,73V0h-8.09V1.33L577.51,0h-17V73a6.16,6.16,0,0,1-6.15,6.15H477.53a6.4,6.4,0,0,1-.88-.07A6.16,6.16,0,0,1,471.38,73V0h-8.09V73A14.11,14.11,0,0,0,464.73,79.21Zm320.65,8A14.26,14.26,0,0,0,799.62,73V2.45l18.22,18.41V99.44a8.46,8.46,0,0,1-8.44,8.45H728.3L712,87.23Zm-115.53,0A14.25,14.25,0,0,0,684.08,73V2.45l10.28,10.38V73a14.24,14.24,0,0,0,1.43,6.22l-.22.22L697,81.28l.78,1,4.5,5.7V99.44a8.46,8.46,0,0,1-8.45,8.45H612.77L596.49,87.23Zm-115.54,0A14.26,14.26,0,0,0,568.55,73V2.45l10.28,10.38V73a14.1,14.1,0,0,0,1.43,6.22l-.22.22,1.46,1.85.78,1,4.49,5.7V99.44a8.45,8.45,0,0,1-8.44,8.45h-81.1L481,87.23Z" />
  <polygon class="cls-2" points="368 364 372 364 376 364 376 297 368 297 368 364" />
  <polygon class="cls-2" points="632 47 632 41.4 632 30.45 632 23 628 23 624 23 624 37.98 624 47 626.05 47 632 47" />
  <polygon class="cls-2" points="517 47 517 41.29 517 30.34 517 23 513 23 509 23 509 37.87 509 47 510.93 47 517 47" />
  <polygon class="cls-2" points="747 47 747 41.99 747 36.52 747 31.04 747 23 743 23 739 23 739 38.57 739 44.05 739 47 741.68 47 747 47" />
</svg>