<svg id="Layer_1" data-name="Layer 1" xmlns="http://www.w3.org/2000/svg" viewBox="0 0 1200 600">
  <defs>
    <style>
      path {
        stroke-dasharray: 1000;
        stroke-dashoffset: 1000;
        animation: dash 15s linear 15s infinite alternate;
      }
      @keyframes dash {
        to {
          stroke-dashoffset: 0;
        }
      }
    </style>
  </defs>
  <title>main-graphic</title>
  <path class="cls-1" d="M914.81,257.18H948.4a23.43,23.43,0,0,1,23.41,23.4V476.19h44.46c0-.56,0-1.12,0-1.69A162.82,162.82,0,0,1,1179.1,311.72a164.72,164.72,0,0,1,20.9,1.33V0" />
  <path class="cls-1" d="M1069.67,365.11a153.67,153.67,0,0,0-45.33,109.39c0,.57,0,1.13,0,1.69H1128.3v8.08H1024.65a153.48,153.48,0,0,0,45,99.62,156.32,156.32,0,0,0,18.9,16.11H1200V321.2a157.44,157.44,0,0,0-20.9-1.4A153.76,153.76,0,0,0,1069.67,365.11Z" />
  <path class="cls-1" d="M300.61,445.52q9.74,5.07,19.9,9.38a268.78,268.78,0,0,0,96.89,21.15,237.91,237.91,0,0,1-5.51-25.61,200.21,200.21,0,0,1-2.35-26.2" />
  <path class="cls-1" d="M300.61,494.37c5.27,3.59,23.17,14.72,45.61,16.64,4.46.38,9.7.32,15.76.26,15.68-.17,35.18-.39,54.94,7.06a90.31,90.31,0,0,1,21,11.19c-2.46-5-4.92-10.32-7.33-15.92a294.52,294.52,0,0,1-10.81-29.4,276.93,276.93,0,0,1-102.39-21.86q-8.53-3.6-16.76-7.74" />
  <path class="cls-1" d="M517.2,497.33q1-5.91,2.14-11.95c.07-.37.15-.74.22-1.11h-5.39C515.31,488.39,516.33,492.74,517.2,497.33Z" />
  <polygon class="cls-1" points="858.26 301.08 827.98 301.08 814.21 301.08 608.09 301.08 608.09 448.64 608.09 473 608.09 476.94 608.09 485.02 608.09 507.92 610 507.92 614.04 507.92 930.91 507.92 930.91 485.02 930.91 476.94 930.91 301.08 872.02 301.08 858.26 301.08" />
  <path class="cls-1" d="M948.4,265.26H590.66a15.34,15.34,0,0,0-15.33,15.32V526.92a15.34,15.34,0,0,0,15.33,15.32H948.4a15.34,15.34,0,0,0,15.33-15.32V280.58A15.34,15.34,0,0,0,948.4,265.26ZM939,476.94V516H600V293H939Z" />
  <path class="cls-1" d="M602.34,556.19H555a8.07,8.07,0,1,0,0,16.13h426.3a8.07,8.07,0,0,0,0-16.13h-379Z" />
  <path class="cls-1" d="M447.14,397.47c4.31,3.78,8.59,7.69,12.33,11.39,1.73,1.72,4.24,3.75,7.16,6.09,12.5,10.07,33.25,26.78,45,61.24h9.57c4.52-20.53,10.3-38.14,17.22-52.45,8-16.64,17.7-28.9,28.78-36.58V280.58a23.44,23.44,0,0,1,23.42-23.4H771.34" />
  <path class="cls-1" d="M1016.55,484.27H971.81v42.65a23.43,23.43,0,0,1-13.49,21.19h23a16.15,16.15,0,1,1,0,32.29H590.83a35.76,35.76,0,0,1-5.36,3.62l-2-3.53,0-.09H555a16.15,16.15,0,1,1,0-32.29h25.69a23.43,23.43,0,0,1-13.49-21.19V397.38c-19.62,17-31.1,49.57-37.71,78.81-.62,2.73-1.2,5.43-1.73,8.08-.18.89-.36,1.77-.53,2.65a478.61,478.61,0,0,0-6.71,49,289,289,0,0,1-1.72,30.47l-8.06-.47c0-.22.15-12.34,1.69-30.23,0-19-2.25-36.21-6.71-51.4q-1.22-4.14-2.66-8.08a117.43,117.43,0,0,0-5.66-13.13c-11.06-21.83-26-33.85-35.88-41.81-3.09-2.49-5.76-4.64-7.79-6.65-3.66-3.63-7.91-7.51-12.22-11.27a100.62,100.62,0,0,1-24,17.22,189,189,0,0,0,2.31,28.64,232.23,232.23,0,0,0,5.94,27q1.14,4,2.43,8.08,4.11,12.94,9.75,26.15a332.6,332.6,0,0,0,18.58,36.71,135.56,135.56,0,0,1,15.75,24.23l-6.8,4.3a259,259,0,0,1-15.65-23.93c-10.15-12.11-22-20.64-35.81-25.84-18.34-6.91-37-6.7-52-6.54-6,.06-11.69.13-16.54-.29-17.41-1.49-32.06-7.89-41.22-12.94a173.9,173.9,0,0,0,70.27,81.77,179.31,179.31,0,0,0,24,12.11h676.82q-5.91-4.9-11.42-10.4A161.58,161.58,0,0,1,1016.55,484.27Z" />
  <path class="cls-1" d="M379.59,600q-4.8-2.54-9.41-5.33a180.51,180.51,0,0,1-47.46-41.76,183.84,183.84,0,0,1-22.11-35.12" />
  <path stroke="#5147ff" stroke-width="7" class="cls-2" d="M839,257.18H780.12m125.91,0H847.12M409.54,424.24a200.21,200.21,0,0,0,2.35,26.2,237.91,237.91,0,0,0,5.51,25.61,268.78,268.78,0,0,1-96.89-21.15q-10.17-4.31-19.9-9.38v9.08q8.24,4.13,16.76,7.74A276.93,276.93,0,0,0,419.76,484.2a294.52,294.52,0,0,0,10.81,29.4c2.41,5.6,4.87,10.93,7.33,15.92a90.31,90.31,0,0,0-21-11.19c-19.76-7.45-39.26-7.23-54.94-7.06-6.06.06-11.3.12-15.76-.26-22.44-1.92-40.34-13.05-45.61-16.64v23.42a183.84,183.84,0,0,0,22.11,35.12,180.51,180.51,0,0,0,47.46,41.76q4.6,2.8,9.41,5.33h19a179.31,179.31,0,0,1-24-12.11,173.9,173.9,0,0,1-70.27-81.77c9.16,5.05,23.81,11.45,41.22,12.94,4.85.42,10.53.35,16.54.29,15-.16,33.66-.37,52,6.54,13.81,5.2,25.66,13.73,35.81,25.84a259,259,0,0,0,15.65,23.93l6.8-4.3a135.56,135.56,0,0,0-15.75-24.23A332.6,332.6,0,0,1,438,510.42q-5.64-13.19-9.75-26.15-1.29-4-2.43-8.08a232.23,232.23,0,0,1-5.94-27,189,189,0,0,1-2.31-28.64Zm109.8,61.14q-1.17,6-2.14,11.95c-.87-4.59-1.89-8.94-3-13.06h5.39C519.49,484.64,519.41,485,519.34,485.38Zm252-228.2H590.66a23.44,23.44,0,0,0-23.42,23.4V387.16c-11.08,7.68-20.73,19.94-28.78,36.58-6.92,14.31-12.7,31.92-17.22,52.45h-9.57c-11.79-34.46-32.54-51.17-45-61.24-2.92-2.34-5.43-4.37-7.16-6.09-3.74-3.7-8-7.61-12.33-11.39l-5.59,5.86c4.31,3.76,8.56,7.64,12.22,11.27,2,2,4.7,4.16,7.79,6.65,9.88,8,24.82,20,35.88,41.81a117.43,117.43,0,0,1,5.66,13.13q1.44,3.94,2.66,8.08c4.46,15.19,6.71,32.36,6.71,51.4-1.54,17.89-1.69,30-1.69,30.23l8.06.47a289,289,0,0,0,1.72-30.47,478.61,478.61,0,0,1,6.71-49c.17-.88.35-1.76.53-2.65.53-2.65,1.11-5.35,1.73-8.08,6.61-29.24,18.09-61.85,37.71-78.81V526.92a23.43,23.43,0,0,0,13.49,21.19H555a16.15,16.15,0,1,0,0,32.29h28.44l0,.09,2,3.53a35.76,35.76,0,0,0,5.36-3.62H981.34a16.15,16.15,0,1,0,0-32.29h-23a23.43,23.43,0,0,0,13.49-21.19V484.27h44.74A161.58,161.58,0,0,0,1064,589.6q5.5,5.5,11.42,10.4h13.2a156.32,156.32,0,0,1-18.9-16.11,153.48,153.48,0,0,1-45-99.62H1128.3v-8.08H1024.36c0-.56,0-1.12,0-1.69A154.73,154.73,0,0,1,1179.1,319.8a157.44,157.44,0,0,1,20.9,1.4v-8.15a164.72,164.72,0,0,0-20.9-1.33A162.82,162.82,0,0,0,1016.25,474.5c0,.57,0,1.13,0,1.69H971.81V280.58a23.43,23.43,0,0,0-23.41-23.4H914.81m66.53,299a8.07,8.07,0,0,1,0,16.13H555a8.07,8.07,0,1,1,0-16.13h426.3Zm-17.61-80v50.73a15.34,15.34,0,0,1-15.33,15.32H590.66a15.34,15.34,0,0,1-15.33-15.32V280.58a15.34,15.34,0,0,1,15.33-15.32H948.4a15.34,15.34,0,0,1,15.33,15.32Z" />
  <path stroke="#5147ff" stroke-width="7" class="cls-2" d="M879.48,293H600V516H939V293H879.48Zm51.43,183.94v31H608.09V301.08H930.91Z" />
</svg>