<svg id="Layer_1" data-name="Layer 1" xmlns="http://www.w3.org/2000/svg" viewBox="0 0 1200 600">
  <defs>
    <style>
      path {
        stroke-dasharray: 1000;
        stroke-dashoffset: 1000;
        <!-- animation: dash 10s linear infinite forwards; -->
        animation: dash 15s linear infinite alternate;
      }
      @keyframes dash {
        to {
          stroke-dashoffset: 0;
        }
      }
    </style>
  </defs>
  <title>main-graphic</title>
  <path class="cls-1" d="M292.53,586.1V557.55H75.68V586.1A24,24,0,0,0,80.1,600h208A24,24,0,0,0,292.53,586.1Z" />
  <path class="cls-1" d="M268.36,228.49H99.84a24.18,24.18,0,0,0-24.16,24.15v39.74H292.53V252.64A24.18,24.18,0,0,0,268.36,228.49ZM184.5,275A15.5,15.5,0,1,1,200,259.5,15.51,15.51,0,0,1,184.5,275Z" />
  <path class="cls-1" d="M184.5,252.16a7.34,7.34,0,1,0,7.34,7.34A7.35,7.35,0,0,0,184.5,252.16Z" />
  <polygon class="cls-1" points="280.75 300.46 276.52 300.46 229.42 300.46 221.34 300.46 172.17 300.46 163.55 300.46 75.68 300.46 75.68 549.47 292.53 549.47 292.53 496.98 292.53 488.25 292.53 450.37 292.53 441.13 292.53 392.57 292.53 385.79 292.53 378.23 292.53 300.46 285.06 300.46 280.75 300.46" />
  <path class="cls-1" d="M300.61,517.79V586.1a32,32,0,0,1-3.15,13.9" />
  <path stroke="#5147ff" stroke-width="7" class="cls-2" d="M304.31,506.12m-3.7-11.75V252.64a32.27,32.27,0,0,0-32.25-32.23H229.42V87.11a163.66,163.66,0,0,0,36.65-27.59A162.3,162.3,0,0,0,304.06,0h-8.63a154.33,154.33,0,0,1-35.08,53.81,155.71,155.71,0,0,1-30.93,24V0h-8.08V82.25a154.17,154.17,0,0,1-70.42,16.87A153.81,153.81,0,0,1,41.49,53.81,154.33,154.33,0,0,1,6.41,0H0V5.77A162.54,162.54,0,0,0,35.77,59.52a161.76,161.76,0,0,0,111.11,47.63v98.08q0,7.62.4,15.18H99.84a32.28,32.28,0,0,0-32.25,32.23V586.1A32,32,0,0,0,70.75,600H80.1a24,24,0,0,1-4.42-13.9V557.55H292.53V586.1a24,24,0,0,1-4.42,13.9h9.35a32,32,0,0,0,3.15-13.9V494.37ZM155,107.15a162.19,162.19,0,0,0,66.38-15.87V220.41h-66q-.42-7.56-.42-15.18ZM292.53,378.23V549.47H75.68v-249H292.53Zm0-108v22.16H75.68V252.64a24.18,24.18,0,0,1,24.16-24.15H268.36a24.18,24.18,0,0,1,24.17,24.15Z" />
  <path stroke="#5147ff" stroke-width="7" class="cls-2" d="M184.5,244A15.5,15.5,0,1,0,200,259.5,15.51,15.51,0,0,0,184.5,244Zm0,22.84a7.34,7.34,0,1,1,7.34-7.34A7.35,7.35,0,0,1,184.5,266.84Z" />
</svg>