<?xml version="1.0" encoding="utf-8"?>
<!-- Generator: Adobe Illustrator 22.1.0, SVG Export Plug-In . SVG Version: 6.00 Build 0)  -->
<svg version="1.1" id="Layer_1" xmlns="http://www.w3.org/2000/svg" xmlns:xlink="http://www.w3.org/1999/xlink" x="0px" y="0px"
	 viewBox="0 0 1200 600" style="enable-background:new 0 0 1200 600;" xml:space="preserve">
<style type="text/css">
	.st0{fill:none;}
	.st1{fill:none;stroke:#5147FF;stroke-width:7;stroke-dasharray:1000;stroke-dashoffset:1000;}
</style>
<title>main-graphic</title>
<path class="st0" d="M914.8,257.2h33.6c12.9,0,23.4,10.5,23.4,23.4v195.6h44.5c0-0.6,0-1.1,0-1.7c0-89.9,72.9-162.8,162.8-162.8
	c7,0,14,0.4,20.9,1.3V0"/>
<path class="st0" d="M1069.7,365.1c-29.1,28.9-45.4,68.3-45.3,109.4c0,0.6,0,1.1,0,1.7h104v8.1h-103.7c2.3,37.6,18.3,73.1,45,99.6
	c5.9,5.9,12.2,11.2,18.9,16.1H1200V321.2c-6.9-0.9-13.9-1.4-20.9-1.4C1138,319.7,1098.6,336,1069.7,365.1z"/>
<path class="st0" d="M300.6,445.5c6.5,3.4,13.1,6.5,19.9,9.4c30.7,13,63.6,20.2,96.9,21.1c-2.3-8.4-4.1-17-5.5-25.6
	c-1.4-8.7-2.1-17.4-2.4-26.2"/>
<path class="st0" d="M300.6,494.4c5.3,3.6,23.2,14.7,45.6,16.6c4.5,0.4,9.7,0.3,15.8,0.3c15.7-0.2,35.2-0.4,54.9,7.1
	c7.5,2.8,14.5,6.6,21,11.2c-2.5-5-4.9-10.3-7.3-15.9c-4.1-9.6-7.7-19.4-10.8-29.4c-35.2-0.7-70-8.1-102.4-21.9
	c-5.7-2.4-11.3-5-16.8-7.7"/>
<path class="st0" d="M517.2,497.3c0.7-3.9,1.4-7.9,2.1-12c0.1-0.4,0.2-0.7,0.2-1.1h-5.4C515.3,488.4,516.3,492.7,517.2,497.3z"/>
<polygon class="st0" points="858.3,301.1 828,301.1 814.2,301.1 608.1,301.1 608.1,448.6 608.1,473 608.1,476.9 608.1,485 
	608.1,507.9 610,507.9 614,507.9 930.9,507.9 930.9,485 930.9,476.9 930.9,301.1 872,301.1 "/>
<path class="st0" d="M948.4,265.3H590.7c-8.5,0-15.3,6.9-15.3,15.3v246.3c0,8.5,6.9,15.3,15.3,15.3h357.7c8.5,0,15.3-6.9,15.3-15.3
	V280.6C963.7,272.1,956.9,265.3,948.4,265.3z M939,476.9V516H600V293h339V476.9z"/>
<path class="st0" d="M602.3,556.2H555c-4.5-0.2-8.2,3.3-8.3,7.8c-0.2,4.5,3.3,8.2,7.8,8.3c0.2,0,0.4,0,0.6,0h426.3
	c4.5-0.2,7.9-3.9,7.8-8.3c-0.1-4.2-3.5-7.6-7.8-7.8H602.3L602.3,556.2z"/>
<path class="st0" d="M447.1,397.5c4.3,3.8,8.6,7.7,12.3,11.4c1.7,1.7,4.2,3.8,7.2,6.1c12.5,10.1,33.2,26.8,45,61.2h9.6
	c4.5-20.5,10.3-38.1,17.2-52.5c8-16.6,17.7-28.9,28.8-36.6V280.6c0-12.9,10.5-23.4,23.4-23.4h180.7"/>
<path class="st0" d="M1016.5,484.3h-44.7v42.6c0,9.1-5.3,17.3-13.5,21.2h23c8.9-0.2,16.3,6.8,16.5,15.7s-6.8,16.3-15.7,16.5
	c-0.3,0-0.5,0-0.8,0H590.8c-1.7,1.4-3.5,2.6-5.4,3.6l-2-3.5v-0.1H555c-8.9,0.2-16.3-6.8-16.5-15.7s6.8-16.3,15.7-16.5
	c0.3,0,0.5,0,0.8,0h25.7c-8.2-3.9-13.5-12.1-13.5-21.2V397.4c-19.6,17-31.1,49.6-37.7,78.8c-0.6,2.7-1.2,5.4-1.7,8.1
	c-0.2,0.9-0.4,1.8-0.5,2.6c-3.1,16.2-5.3,32.6-6.7,49c0,10.2-0.6,20.4-1.7,30.5l-8.1-0.5c0-0.2,0.1-12.3,1.7-30.2
	c0-19-2.2-36.2-6.7-51.4c-0.8-2.8-1.7-5.5-2.7-8.1c-1.6-4.5-3.5-8.9-5.7-13.1c-11.1-21.8-26-33.9-35.9-41.8
	c-3.1-2.5-5.8-4.6-7.8-6.6c-3.7-3.6-7.9-7.5-12.2-11.3c-7.1,6.9-15.2,12.7-24,17.2c0,9.6,0.8,19.2,2.3,28.6c1.4,9.1,3.4,18.1,5.9,27
	c0.8,2.7,1.6,5.4,2.4,8.1c2.7,8.6,6,17.3,9.8,26.1c5.4,12.6,11.6,24.9,18.6,36.7c6.1,7.5,11.4,15.6,15.8,24.2l-6.8,4.3
	c-5.7-7.7-10.9-15.7-15.6-23.9c-10.1-12.1-22-20.6-35.8-25.8c-18.3-6.9-37-6.7-52-6.5c-6,0.1-11.7,0.1-16.5-0.3
	c-17.4-1.5-32.1-7.9-41.2-12.9c14.2,34,38.8,62.6,70.3,81.8c7.7,4.6,15.7,8.7,24,12.1h676.8c-3.9-3.3-7.7-6.7-11.4-10.4
	C1035.7,561.5,1018.8,524,1016.5,484.3z"/>
<path class="st0" d="M379.6,600c-3.2-1.7-6.3-3.5-9.4-5.3c-18.2-11-34.2-25.2-47.5-41.8c-8.7-10.8-16.1-22.6-22.1-35.1"/>
<path class="st1" d="M839,257.2h-58.9 M906,257.2h-58.9 M409.5,424.2c0.2,8.8,1,17.5,2.4,26.2c1.4,8.6,3.2,17.2,5.5,25.6
	c-33.3-1-66.2-8.2-96.9-21.1c-6.8-2.9-13.4-6-19.9-9.4v9.1c5.5,2.8,11.1,5.3,16.8,7.7c32.4,13.7,67.2,21.2,102.4,21.9
	c3.1,10,6.7,19.8,10.8,29.4c2.4,5.6,4.9,10.9,7.3,15.9c-6.5-4.6-13.5-8.4-21-11.2c-19.8-7.5-39.3-7.2-54.9-7.1
	c-6.1,0.1-11.3,0.1-15.8-0.3c-22.4-1.9-40.3-13-45.6-16.6v23.4c6,12.5,13.4,24.3,22.1,35.1c13.2,16.6,29.3,30.7,47.5,41.8
	c3.1,1.9,6.2,3.6,9.4,5.3h19c-8.3-3.4-16.3-7.5-24-12.1c-31.5-19.1-56.1-47.8-70.3-81.8c9.2,5,23.8,11.4,41.2,12.9
	c4.9,0.4,10.5,0.3,16.5,0.3c15-0.2,33.7-0.4,52,6.5c13.8,5.2,25.7,13.7,35.8,25.8c4.8,8.3,10,16.2,15.6,23.9l6.8-4.3
	c-4.4-8.6-9.7-16.7-15.8-24.2c-6.9-11.8-13.1-24.1-18.6-36.7c-3.8-8.8-7-17.5-9.8-26.1c-0.9-2.7-1.7-5.4-2.4-8.1
	c-2.5-8.9-4.5-17.9-5.9-27c-1.5-9.5-2.3-19-2.3-28.6L409.5,424.2z M519.3,485.4c-0.8,4-1.5,8-2.1,12c-0.9-4.6-1.9-8.9-3-13.1h5.4
	C519.5,484.6,519.4,485,519.3,485.4z M771.3,257.2H590.7c-12.9,0-23.4,10.5-23.4,23.4v106.6c-11.1,7.7-20.7,19.9-28.8,36.6
	c-6.9,14.3-12.7,31.9-17.2,52.5h-9.6c-11.8-34.5-32.5-51.2-45-61.2c-2.9-2.3-5.4-4.4-7.2-6.1c-3.7-3.7-8-7.6-12.3-11.4l-5.6,5.9
	c4.3,3.8,8.6,7.6,12.2,11.3c2,2,4.7,4.2,7.8,6.6c9.9,8,24.8,20,35.9,41.8c2.2,4.3,4,8.6,5.7,13.1c1,2.6,1.8,5.3,2.7,8.1
	c4.5,15.2,6.7,32.4,6.7,51.4c-1.5,17.9-1.7,30-1.7,30.2l8.1,0.5c1.1-10.1,1.7-20.3,1.7-30.5c1.4-16.4,3.6-32.8,6.7-49
	c0.2-0.9,0.3-1.8,0.5-2.6c0.5-2.6,1.1-5.4,1.7-8.1c6.6-29.2,18.1-61.9,37.7-78.8v129.6c0,9.1,5.3,17.3,13.5,21.2H555
	c-8.9-0.2-16.3,6.8-16.5,15.7s6.8,16.3,15.7,16.5c0.3,0,0.5,0,0.8,0h28.4v0.1l2,3.5c1.9-1,3.7-2.3,5.4-3.6h390.5
	c8.9,0.2,16.3-6.8,16.5-15.7s-6.8-16.3-15.7-16.5c-0.3,0-0.5,0-0.8,0h-23c8.2-3.9,13.5-12.1,13.5-21.2v-42.7h44.7
	c2.3,39.8,19.2,77.3,47.4,105.3c3.7,3.7,7.5,7.1,11.4,10.4h13.2c-6.7-4.9-13-10.2-18.9-16.1c-26.7-26.6-42.7-62-45-99.6h103.6v-8.1
	h-103.9c0-0.6,0-1.1,0-1.7c0-85.4,69.3-154.7,154.7-154.7c7,0,14,0.5,20.9,1.4V313c-6.9-0.9-13.9-1.3-20.9-1.3
	c-89.9,0-162.8,72.9-162.8,162.8c0,0.6,0,1.1,0,1.7h-44.4V280.6c0-12.9-10.5-23.4-23.4-23.4h-33.6 M981.3,556.2
	c4.5,0.2,7.9,3.9,7.8,8.3c-0.1,4.2-3.5,7.6-7.8,7.8H555c-4.5,0.2-8.2-3.3-8.3-7.8c-0.2-4.5,3.3-8.2,7.8-8.3c0.2,0,0.4,0,0.6,0H981.3
	L981.3,556.2z M963.7,476.2v50.7c0,8.5-6.9,15.3-15.3,15.3H590.7c-8.5,0-15.3-6.9-15.3-15.3V280.6c0-8.5,6.9-15.3,15.3-15.3h357.7
	c8.5,0,15.3,6.9,15.3,15.3L963.7,476.2z"/>
<path class="st1" d="M879.5,293H600v223h339V293H879.5z M930.9,476.9v31H608.1V301.1h322.8V476.9z"/>
</svg>
