<?xml version="1.0" encoding="utf-8"?>
<!-- Generator: Adobe Illustrator 22.1.0, SVG Export Plug-In . SVG Version: 6.00 Build 0)  -->
<svg version="1.1" id="Layer_1" xmlns="http://www.w3.org/2000/svg" xmlns:xlink="http://www.w3.org/1999/xlink" x="0px" y="0px"
	 viewBox="0 0 1200 600" style="enable-background:new 0 0 1200 600;" xml:space="preserve">
<style type="text/css">
	.st0{fill:none;}
	.st1{fill:none;stroke:#4f68a8;stroke-width:7;stroke-dasharray:1000;stroke-dashoffset:1000;}
</style>
<title>main-graphic</title>
<path class="st0" d="M578.3,107.9c4.7,0,8.4-3.8,8.4-8.4V88l-4.5-5.7l-0.8-1l-1.5-1.9l0.2-0.2c-0.9-1.9-1.4-4.1-1.4-6.2V12.8
	L568.5,2.4V73c0,7.9-6.4,14.2-14.2,14.2H481l16.3,20.7L578.3,107.9z"/>
<path class="st0" d="M375.9,81.6c0,51.3,41.7,93,93,93h319.5c29.9-30.2,78.7-30.5,108.9-0.5c0.2,0.2,0.4,0.4,0.5,0.5h85
	c0.9-23.7,10.3-46.4,26.5-63.8c-0.5-5.8-0.8-12.1-0.9-17.6c0-1.8-0.3-4.1-0.5-6.9c-1.5-13.5-4-37.2,14-66.2l-3,2.1
	c-35.9,24.2-64.6,32.5-85.4,24.6L929,45l2.5-4.1c0,0,3.7-6.6,9.8-28c1.4-4.5,3.3-8.8,5.6-12.8H808.6l17.4,17.5v81.9
	c0,9.1-7.4,16.5-16.5,16.6h-85l-14-17.7v1.2c0,9.1-7.4,16.5-16.5,16.5h-85l-14-17.7v1.2c0,9.1-7.4,16.5-16.5,16.5h-85l-26.6-33.7
	l-0.8-1l-1.5-1.8l0.2-0.2c-0.9-1.9-1.4-4.1-1.4-6.2V0h-87.4V81.6z"/>
<path class="st0" d="M586.9,9.5V73c0,3.4,2.8,6.1,6.1,6.2h76.8c3.4,0,6.2-2.8,6.2-6.1c0,0,0,0,0,0V0h-89.1V9.5z M624,38V23h8v24h-8
	V38z"/>
<path class="st0" d="M1015.8,85.3c0.3,3,0.6,5.5,0.6,7.7c0,3.2,0.2,6.7,0.4,10.3c11.7-10.3,25.7-17.8,40.9-21.7
	c6.1-9.8,11.2-20.2,15.5-30.9c3.8-9.5,7-19.2,9.6-29.1c0.7-7.2,2.3-14.3,4.5-21.2l7.9,1.8c-1.1,7-2.5,14-4.4,20.9
	c-2.8,31.4,15.1,48.9,28.8,62.3c10.4,4.1,20,9.9,28.4,17.1c1.1-4.7,1.9-9.6,2.4-14.4c1.6-14.9,0.7-29.9-2.9-44.4
	c-3.9-15.5-10.5-30.3-19.3-43.6h-80c-14.4,14.6-24.2,29.6-29.2,44.8C1013.3,61.9,1014.8,76,1015.8,85.3z"/>
<path class="st0" d="M693.9,107.9c4.7,0,8.4-3.8,8.5-8.4V88l-4.5-5.7l-0.8-1l-1.5-1.8l0.2-0.2c-0.9-1.9-1.4-4.1-1.4-6.2V12.8
	L684.1,2.4V73c0,7.9-6.4,14.2-14.2,14.2h-73.4l16.3,20.7L693.9,107.9z"/>
<path class="st0" d="M1200,0h-62.3c8,13,14,27.2,17.7,42c3.8,15.5,4.8,31.5,3,47.4c-0.7,6.6-1.9,13.1-3.6,19.5
	c38.5,39.7,37.6,103.1-2.1,141.7c-39.7,38.5-103.1,37.6-141.7-2.1c-17.2-17.7-27.2-41.1-28.2-65.8h-78c16.1,21.4,19.9,49.7,10,74.6"
	/>
<path class="st0" d="M702.5,9.5V73c0,1.5,0.6,2.9,1.5,4c1,1.1,2.3,1.8,3.7,2c0.3,0,0.6,0.1,0.9,0.1h76.8c3.4,0,6.1-2.7,6.1-6.1V0
	h-89.1V9.5z M739,44V23h8v24h-8V44z"/>
<path class="st0" d="M940.5,40.4c22.2,5.3,52.1-10.4,73.8-25c7.6-5.1,14.6-10.4,20.9-15.4h-78.9c-3.6,5.9-6.2,11.1-7.3,15
	C946.6,23.6,943.8,32.1,940.5,40.4z"/>
<path class="st0" d="M471.4,72.9L471.4,72.9c0,3.1,2.2,5.7,5.3,6.2c0.3,0,0.6,0.1,0.9,0.1h76.8c3.4,0,6.1-2.8,6.2-6.2V0h-89.1V72.9z
	 M509,37.9V23h8v24h-8V37.9z"/>
<path class="st0" d="M809.4,107.9c4.7,0,8.4-3.8,8.4-8.4V20.9L799.6,2.4V73c0,7.9-6.4,14.2-14.2,14.2H712l16.3,20.7L809.4,107.9z"/>
<polygon class="st0" points="694.4,0 693,0 694.4,1.3 "/>
<polygon class="st0" points="578.8,0 577.5,0 578.8,1.3 "/>
<path class="st0" d="M1103.6,80.5c-6.1-6.6-11.2-14.1-15-22.3c-2-4.3-3.5-8.8-4.5-13.4c-1,2.8-2.1,5.7-3.3,8.7
	c-3.5,8.9-7.7,17.6-12.4,25.9C1080.1,77.7,1092,78.1,1103.6,80.5L1103.6,80.5z"/>
<path class="st0" d="M780.1,257.2H839v-61.7h8.1v61.7H906c11.3-25,6.7-54.3-11.7-74.6c-2.7-2.9-5.5-5.6-8.7-8.1
	c-25-19.6-60.2-19.6-85.2,0c-3.1,2.4-6,5.1-8.7,8.1C773.4,202.9,768.8,232.2,780.1,257.2L780.1,257.2z"/>
<path class="st0" d="M409.5,424.2c-37.5,15.2-80.5,6.4-108.9-22.4"/>
<path class="st0" d="M300.6,389.8c26.3,32.2,71,42.7,108.9,25.7c1.4-0.6,2.8-1.3,4.1-2s2.8-1.5,4.2-2.3c6.4-3.7,12.3-8.1,17.6-13.2
	c1-0.9,1.9-1.9,2.9-2.9s1.9-2,2.7-3c33.7-38.1,30.1-96.3-8-130s-96.3-30.1-130,8c-0.8,0.9-1.6,1.8-2.4,2.8 M376,364h-8v-67h8V364z"
	/>
<path class="st0" d="M1011.8,178.6L995.3,150c-6.1,18.6-6.1,38.6,0,57.2L1011.8,178.6z"/>
<path class="st0" d="M771.3,257.2c-9.9-24.9-6.1-53.2,10-74.6H468.9c-40.5,0-77.1-24.2-93-61.5v110.1c55.3,2.2,98.3,48.7,96.1,104
	c-0.9,23-9.7,44.9-24.9,62.2"/>
<path class="st0" d="M441.5,403.3c-7.1,6.9-15.2,12.7-24,17.2"/>
<path class="st0" d="M1101.8,268.7c8.9-1.9,17.5-5.1,25.5-9.5h-20.1L1101.8,268.7z"/>
<path class="st0" d="M1065.5,255.1l8.8,15.2c2.8,0.3,5.7,0.4,8.6,0.4s5.8-0.1,8.6-0.4l8.8-15.2l-17.4-30.1L1065.5,255.1z"/>
<path class="st0" d="M1170.5,207.2c6.1-18.6,6.1-38.6,0-57.2l-16.5,28.6L1170.5,207.2z"/>
<path class="st0" d="M1107.4,182.6l-19.8,34.3l19.7,34h32.6c7.3-5.7,13.7-12.5,18.9-20.1l7.5-12.9c0.2-0.4,0.3-0.7,0.5-1.1
	l-19.7-34.2H1107.4z"/>
<path class="st0" d="M1038.5,259.3c8,4.4,16.6,7.6,25.5,9.5l-5.5-9.5H1038.5z"/>
<polygon class="st0" points="1100.4,178.6 1082.9,148.3 1065.4,178.6 1082.9,208.8 "/>
<path class="st0" d="M1078.2,216.9l-19.8-34.3h-39.6l-19.7,34.2c0.2,0.4,0.3,0.7,0.5,1.1l7.5,12.9c5.3,7.6,11.7,14.4,19,20.1h32.6
	L1078.2,216.9z"/>
<path class="st0" d="M1107.4,97.9h19.9c-0.8-0.4-1.6-0.9-2.4-1.3c-3.2-1.6-6.4-3.1-9.8-4.3c-4.3-1.6-8.7-2.9-13.2-3.8L1107.4,97.9z"
	/>
<path class="st0" d="M1051.4,97.9h7.1l5.4-9.4l-1.1,0.2c-2,0.4-3.9,1-5.8,1.5c-2.2,0.7-4.4,1.4-6.6,2.2c-4.1,1.5-8,3.4-11.9,5.5
	L1051.4,97.9L1051.4,97.9z"/>
<path class="st0" d="M1100.4,101.9l-8.7-15c-2.9-0.3-5.8-0.4-8.8-0.4s-5.9,0.1-8.8,0.4l-8.7,15l17.5,30.2L1100.4,101.9z"/>
<path class="st0" d="M1107.4,105.9l-19.8,34.3l19.8,34.3h39.6l19.8-34.2c-0.2-0.4-0.3-0.7-0.5-1.1l-7.5-12.9c-2-3-4.3-5.8-6.7-8.5
	c-1-1.2-2.1-2.3-3.2-3.4s-2.2-2.2-3.3-3.2c-2-1.8-4-3.6-6.2-5.3H1107.4L1107.4,105.9z"/>
<path class="st0" d="M1058.4,174.5l19.8-34.3l-19.8-34.3h-32.2c-3.1,2.4-6,5-8.7,7.7c-1.3,1.3-2.5,2.6-3.7,3.9s-2.5,2.9-3.6,4.3
	s-2.2,2.9-3.2,4.4l-7.5,12.9c-0.2,0.4-0.3,0.7-0.5,1.1l19.7,34.2L1058.4,174.5z"/>
<path class="st1" d="M1007,230.8l-7.5-12.9c-0.2-0.4-0.3-0.7-0.5-1.1l19.7-34.2h39.6l19.8,34.3l-19.7,34H1026
	C1018.7,245.2,1012.3,238.4,1007,230.8z M1065.4,178.6l17.5-30.2l17.5,30.2l-17.5,30.2L1065.4,178.6z M1038.5,259.3h20.1l5.5,9.5
	C1055.1,266.9,1046.5,263.7,1038.5,259.3L1038.5,259.3z M1091.5,270.3c-2.8,0.3-5.7,0.4-8.6,0.4s-5.8-0.1-8.6-0.4l-8.8-15.2
	l17.4-30.1l17.4,30.1L1091.5,270.3z M1101.7,268.7l5.5-9.5h20.1C1119.3,263.7,1110.7,266.9,1101.7,268.7L1101.7,268.7z
	 M1166.2,217.9l-7.5,12.9c-5.3,7.6-11.6,14.4-18.9,20.1h-32.6l-19.7-34l19.8-34.3h39.7l19.8,34.2
	C1166.6,217.1,1166.4,217.5,1166.2,217.9L1166.2,217.9z M1175,178.6c0,9.7-1.5,19.4-4.6,28.6l-16.4-28.6l16.5-28.6
	C1173.5,159.2,1175.1,168.9,1175,178.6L1175,178.6z M1136.2,105.9h3.3c2.1,1.7,4.2,3.4,6.2,5.3c1.1,1,2.2,2.1,3.3,3.2
	s2.1,2.2,3.2,3.4c2.4,2.7,4.6,5.6,6.7,8.5l7.5,12.9c0.2,0.4,0.3,0.7,0.5,1.1l-19.7,34.2h-39.6l-19.8-34.3l19.8-34.3L1136.2,105.9
	L1136.2,105.9z M1124.8,96.6c0.8,0.4,1.6,0.8,2.4,1.3h-19.9l-5.4-9.4c4.5,0.9,8.9,2.2,13.2,3.8C1118.4,93.5,1121.7,94.9,1124.8,96.6
	L1124.8,96.6z M1080.7,53.5c1.2-3,2.3-5.9,3.3-8.7c1,4.6,2.5,9.1,4.5,13.4c3.8,8.2,8.9,15.7,15,22.3c-11.6-2.4-23.5-2.8-35.2-1.1
	C1073,71.1,1077.2,62.4,1080.7,53.5L1080.7,53.5z M1074,86.9c2.9-0.3,5.8-0.4,8.8-0.4c3,0,5.9,0.1,8.8,0.4l8.7,15l-17.5,30.3
	l-17.5-30.3L1074,86.9z M1050.3,92.4c2.2-0.8,4.3-1.6,6.6-2.2c1.9-0.6,3.9-1.1,5.8-1.5l1.1-0.2l-5.4,9.4h-19.9
	C1042.3,95.7,1046.3,93.9,1050.3,92.4L1050.3,92.4z M999.5,139.2l7.5-12.9c1-1.5,2.1-3,3.2-4.4s2.3-2.9,3.6-4.3
	c1.2-1.3,2.4-2.7,3.7-3.9c2.7-2.7,5.6-5.3,8.7-7.7h32.2l19.8,34.3l-19.8,34.3h-39.6L999,140.3C999.2,140,999.4,139.6,999.5,139.2
	L999.5,139.2z M995.3,150l16.5,28.6l-16.5,28.6C989.2,188.6,989.2,168.6,995.3,150z M847.1,257.2v-61.7H839v61.7H847.1z
	 M447.1,397.5c36.5-41.5,32.5-104.8-9-141.3c-17.3-15.2-39.2-24-62.2-24.9V121.1c15.9,37.2,52.5,61.4,93,61.5h312.5
	c-16.1,21.4-19.9,49.7-10,74.6h8.8c-11.3-25-6.7-54.3,11.7-74.6c2.7-2.9,5.5-5.6,8.7-8.1c25-19.6,60.2-19.6,85.2,0
	c3.1,2.4,6,5.1,8.7,8.1c18.4,20.3,22.9,49.6,11.7,74.6h8.8c9.9-24.9,6.1-53.2-10-74.6h78c2.2,55.3,48.7,98.4,104.1,96.3
	c55.3-2.2,98.4-48.7,96.3-104.1c-1-24.7-11-48.2-28.3-66c1.7-6.4,2.9-12.9,3.6-19.5c1.8-15.8,0.8-31.9-3-47.4
	c-3.7-14.8-9.7-29-17.7-41.9h-9.6c8.9,13.3,15.4,28.1,19.3,43.6c3.6,14.5,4.6,29.6,2.9,44.4c-0.5,4.8-1.3,9.6-2.4,14.4
	c-8.5-7.3-18.1-13-28.4-17.1c-13.7-13.4-31.6-30.9-28.8-62.3c1.8-6.9,3.3-13.8,4.4-20.9l-7.9-1.8c-2.2,6.9-3.8,14-4.5,21.2
	c-2.6,9.9-5.8,19.6-9.6,29.1c-4.3,10.7-9.5,21.1-15.5,30.9c-15.1,3.9-29.1,11.4-40.9,21.7c-0.2-3.6-0.4-7.1-0.4-10.3
	c0-2.2-0.3-4.7-0.6-7.7c-1-9.3-2.5-23.4,3.1-40.5c5-15.2,14.8-30.2,29.2-44.8h-13c-6.2,5-13.3,10.3-20.9,15.4
	c-21.7,14.6-51.5,30.3-73.8,25c3.3-8.3,6.2-16.8,8.5-25.4c1.1-3.9,3.7-9.2,7.3-15h-9.4c-2.4,4.1-4.3,8.4-5.7,12.8
	c-6.1,21.4-9.8,27.9-9.8,28l-2.5,4.1l4.5,1.7c20.7,7.9,49.5-0.4,85.4-24.6l3-2.1c-18,29-15.5,52.7-14,66.2c0.3,2.7,0.5,5.1,0.5,6.9
	c0,5.5,0.4,11.8,0.9,17.6c-16.1,17.4-25.5,40.1-26.5,63.8h-85c-29.9-30.2-78.7-30.5-108.9-0.5c-0.2,0.2-0.4,0.4-0.5,0.5H468.9
	c-51.3,0-93-41.7-93-93V0h-8.1v231.3c-25.4,1-49.4,11.6-67.2,29.7v12c32.9-38.8,91-43.5,129.8-10.6s43.5,91,10.6,129.8l0,0
	c-0.9,1-1.8,2-2.7,3s-1.9,1.9-2.9,2.9c-5.3,5.1-11.2,9.5-17.6,13.2c-1.4,0.8-2.8,1.5-4.2,2.3c-1.3,0.7-2.7,1.3-4.1,2
	c-37.9,17-82.6,6.5-108.9-25.7v12c28.4,28.8,71.4,37.6,108.9,22.4c2.7-1.1,5.4-2.3,8-3.7c8.8-4.5,16.9-10.3,24-17.2L447.1,397.5z"/>
<path class="st1" d="M464.7,79.2l-0.2,0.2l1.5,1.8l0.8,1l26.5,33.7h85c9.1,0,16.5-7.4,16.5-16.5v-1.2l14,17.7h85
	c9.1,0,16.6-7.4,16.6-16.6v-1.2l14,17.7h85c9.1,0,16.5-7.4,16.5-16.5V17.5L808.6,0h-17v73c0,3.4-2.8,6.1-6.2,6.2h-76.8
	c-0.3,0-0.6,0-0.9-0.1c-1.4-0.2-2.8-1-3.7-2.1c-1-1.1-1.5-2.5-1.5-4V0h-8.1v1.3L693,0h-17v73c0,3.4-2.7,6.1-6.1,6.2h-76.8
	c-3.4,0-6.1-2.8-6.1-6.2V0h-8.1v1.3L577.5,0h-17v73c0,3.4-2.8,6.1-6.2,6.2h-76.8c-0.3,0-0.6,0-0.9-0.1c-3-0.4-5.3-3-5.3-6.1V0h-8.1
	v73C463.3,75.2,463.8,77.3,464.7,79.2z M785.4,87.2c7.8,0,14.2-6.4,14.2-14.2V2.4l18.2,18.4v78.6c0,4.7-3.8,8.4-8.4,8.4h-81.1
	L712,87.2L785.4,87.2z M669.8,87.2c7.8,0,14.2-6.4,14.2-14.2V2.4l10.3,10.4V73c0,2.2,0.5,4.3,1.4,6.2l-0.2,0.2l1.4,1.8l0.8,1
	l4.5,5.7v11.5c0,4.7-3.8,8.4-8.5,8.4h-81.1l-16.3-20.7L669.8,87.2z M554.3,87.2c7.8,0,14.2-6.4,14.2-14.2V2.4l10.3,10.4V73
	c0,2.2,0.5,4.3,1.4,6.2l-0.2,0.2l1.5,1.8l0.8,1l4.5,5.7v11.5c0,4.7-3.8,8.4-8.4,8.4h-81.1L481,87.2L554.3,87.2z"/>
<polygon class="st0" points="368,364 372,364 376,364 376,297 368,297 "/>
<polygon class="st0" points="632,47 632,41.4 632,30.4 632,23 628,23 624,23 624,38 624,47 626,47 "/>
<polygon class="st0" points="517,47 517,41.3 517,30.3 517,23 513,23 509,23 509,37.9 509,47 510.9,47 "/>
<polygon class="st0" points="747,47 747,42 747,36.5 747,31 747,23 743,23 739,23 739,38.6 739,44 739,47 741.7,47 "/>
</svg>
